# xmcd
#
# Track frame offsets:
#	150
#	16085
#	29282
#	48447
#	59105
#	73745
#	87097
#	104257
#	117425
#	128252
#	146420
#	162535
#	176215
#	187760
#	199362
#
# Disc length: 2904 seconds
# Revision: 3
# Processed by: cddbd v1.5.2PL0 Copyright (c) Steve Scherf et al.
# Submitted via: dBpowerAMP V12.0
#
DISCID=d10b560f
DTITLE=Various Artist - Forever Country: Volume 1
DYEAR=1997
DGENRE=Country
TTITLE0=Willie Nelson: Always On My Mind
TTITLE1=Charlie Rich: Behind Closed Doors
TTITLE2=Kris Kristofferson: Me and Bobby McGee
TTITLE3=Ricky van Shelton: From A Jack To A King
TTITLE4=Various Artist - Janie Fricke: He's Out Of My Life
TTITLE5=Moe Bandy: Yesterday Once More
TTITLE6=Ray Price: For The Good Times
TTITLE7=Larry Gatlin: Houston Means I'm One Day Closer To You
TTITLE8=Tanya Tucker: Would You Lay With Me
TTITLE9=Mary Chapin Carpenter: You Win Again
TTITLE10=T.G. Sheppard: Strong Heart
TTITLE11=Tammy Wynette and George Jones: Golden Ring
TTITLE12=Johnny Cash: A Thing Called Love
TTITLE13=Marty Robbins: Among My Souvenirs
TTITLE14=Dolly Parton: More Than I Can Say
EXTD=
EXTT0=
EXTT1=
EXTT2=
EXTT3=
EXTT4=
EXTT5=
EXTT6=
EXTT7=
EXTT8=
EXTT9=
EXTT10=
EXTT11=
EXTT12=
EXTT13=
EXTT14=
PLAYORDER=
